<svg id="Capa_1" enable-background="new 0 0 512 512" viewBox="0 0 512 512" xmlns="http://www.w3.org/2000/svg"><g><path d="m499.999 12.129c-15.973-15.962-41.961-15.962-57.934 0-8.264 8.289-12.705 19.734-11.901 31.686-11.115 5.757-22.27 12.83-33.228 21.074-12.754 9.585-24.86 20.529-35.013 31.648l-60.857 66.691c-8.945-4.429-20.101-2.945-27.543 4.493l-.152.153c-4.522 4.519-7.013 10.529-7.013 16.922 0 4.507 1.243 8.821 3.557 12.559l-15.766 17.275c-3.676 4.028-9.634 5.095-14.48 2.601l-15.06-7.77c-29.377-15.152-64.828-9.634-88.216 13.73l-24.077 24.067-69.275 39.023c-7.335-6.092-18.271-5.71-25.145 1.16l-12.417 12.412c-3.533 3.531-5.479 8.227-5.479 13.222s1.946 9.691 5.479 13.222l59.326 59.291c-17.544 15.846-18.106 46.032-.559 62.416 16.978 17.061 45.345 16.827 62.081-.93l59.341 59.306c3.644 3.642 8.428 5.462 13.214 5.462 4.785 0 9.572-1.821 13.215-5.462l12.417-12.411c3.533-3.531 5.479-8.227 5.479-13.222 0-4.408-1.52-8.58-4.304-11.927l39.045-69.232 24.084-24.074c23.379-23.357 28.897-58.783 13.732-88.152l-7.769-15.047c-2.5-4.846-1.432-10.795 2.597-14.467l17.31-15.775c3.831 2.362 8.18 3.566 12.54 3.566 6.131 0 12.264-2.335 16.938-7.006l.135-.136c4.522-4.519 7.014-10.529 7.014-16.923s-2.491-12.404-7.014-16.922l-31.762-31.743 60.462-66.258c9.532-10.441 20.925-20.735 32.948-29.772 9.299-6.996 18.719-13.064 28.099-18.134 3.445 7.213 10.426 15.135 19.322 19.284-11.813 21.83-28.94 43.706-47.923 61.01l-45.641 41.6c-3.061 2.79-3.28 7.534-.49 10.595 1.479 1.624 3.509 2.448 5.545 2.448 1.804 0 3.612-.646 5.051-1.957l45.641-41.6c21.114-19.246 40.114-43.859 52.751-68.21 10.868.849 23.267-3.331 31.694-11.871 7.74-7.736 12.002-18.019 12.002-28.958s-4.262-21.222-12.001-28.957zm-385.207 425.266c-11.013 11.006-28.931 11.005-39.945-.002-11.527-10.625-11.35-30.624.568-41.201l40.302 40.279zm99.119 45.966-12.417 12.41c-1.439 1.439-3.782 1.439-5.222 0l-180.189-180.083c-.942-.941-1.083-2.041-1.083-2.613s.141-1.671 1.083-2.613l12.417-12.41c.72-.719 1.666-1.079 2.611-1.079.946 0 1.892.36 2.611 1.079l180.188 180.083c.942.941 1.083 2.041 1.083 2.613s-.14 1.671-1.082 2.613zm73.365-236.599c-9.032 8.232-11.427 21.568-5.822 32.432l7.77 15.05c12.156 23.542 7.732 51.938-11.007 70.661l-19.51 19.502-88.636-88.585c-2.93-2.929-7.679-2.927-10.606.003-2.928 2.93-2.927 7.679.003 10.606l89.909 89.857-34.656 61.449-160.583-160.489 61.485-34.635 18.946 18.935c2.929 2.928 7.678 2.926 10.606-.003 2.928-2.93 2.927-7.679-.003-10.606l-17.666-17.655 19.49-19.482c18.754-18.734 47.181-23.157 70.736-11.01l15.066 7.773c10.861 5.59 24.198 3.196 32.43-5.823l14.872-16.296 23.474 23.46zm49.04-25.189c-.015 1.464-.594 3.952-2.771 6.468-3.479 3.477-9.141 3.477-12.619 0l-36.952-36.931c-2.589-2.681-4.06-8.365.154-12.781 3.479-3.478 9.141-3.477 12.618 0l36.952 36.931c1.689 1.687 2.618 3.929 2.618 6.313zm153.08-162.141c-10.126 10.121-26.603 10.12-36.727 0-2.735-2.714-6.057-7.92-7.109-13.263-1.672-7.781.954-17.553 7.109-23.431 5.062-5.06 11.713-7.589 18.363-7.589s13.301 2.53 18.363 7.589c4.905 4.902 7.605 11.417 7.605 18.348 0 6.93-2.7 13.446-7.604 18.346z"/></g></svg>